<svg xmlns="http://www.w3.org/2000/svg" viewBox="0 0 820 180" role="img" aria-label="MédicoHelp marca completa">
  <defs>
    <style>
      .brand500{fill:#00A79D}
      .brandText{fill:#FFFFFF;font-family:Georgia,serif}
      .tag{fill:#E9F7F6;font-family:Inter,Arial,sans-serif}
      .stroke{fill:none;stroke:#00A79D;stroke-width:8;stroke-linecap:round;stroke-linejoin:round}
      .fill{fill:#00A79D}
    </style>
  </defs>
  <g transform="translate(8,8) scale(0.9)">
    <path class="stroke" d="M128 214L62 148a44 44 0 1162-62 44 44 0 1162 62z"/>
    <line class="stroke" x1="58" y1="105" x2="98" y2="105"/>
    <circle class="fill" cx="58" cy="105" r="6"/>
    <line class="stroke" x1="58" y1="128" x2="98" y2="128"/>
    <circle class="fill" cx="58" cy="128" r="6"/>
    <line class="stroke" x1="58" y1="151" x2="98" y2="151"/>
    <circle class="fill" cx="58" cy="151" r="6"/>
    <rect class="fill" x="156" y="90" width="24" height="56" rx="4"/>
    <rect class="fill" x="136" y="110" width="64" height="16" rx="4"/>
    <path class="stroke" d="M96 138h18l6-12 8 28 6-12h30"/>
  </g>
  <text x="210" y="85" class="brandText" font-size="64">Médico</text>
  <text x="455" y="85" class="brandText brand500" font-size="64">Help</text>
  <text x="210" y="130" class="tag" font-size="24">Sua aliada inteligente na decisão clínica</text>
</svg>
